<svg width="129" height="88" viewBox="0 0 129 88" fill="none" xmlns="http://www.w3.org/2000/svg">
<path fill-rule="evenodd" clip-rule="evenodd" d="M0 0H28.5671C32.0633 0 35.8271 0.428571 39.0755 1.76701C42.3654 3.12253 45.2039 5.4523 46.5664 9.22557C48.2899 13.9986 48.919 19.9454 48.0143 25.6004C47.3012 30.0574 45.614 34.4452 42.6452 37.9247C46.0679 39.0706 49.4124 41.6115 52.1933 44.7368C56.0637 49.0867 59.1801 54.9304 60.2065 60.9389C61.239 66.9826 60.1635 73.3225 55.4373 78.3161C50.7549 83.2634 42.7643 86.5932 30.5967 87.3L30.5438 87.303H30.4909C28.41 87.303 26.0516 87.3332 23.4541 87.3665C17.3733 87.4443 9.98209 87.5389 1.77169 87.3023L0 87.2512V0ZM3.64849 3.64848V83.7016C11.064 83.8761 17.6972 83.791 23.3087 83.719C25.913 83.6856 28.2973 83.6551 30.4376 83.6545C42.0837 82.9699 48.9978 79.8122 52.7875 75.8081C56.5391 71.8443 57.4997 66.7604 56.6101 61.5533C55.7146 56.3111 52.9511 51.0772 49.4675 47.1621C45.9256 43.1814 41.9685 40.9151 38.8303 40.9151H33.6108L37.694 37.6638C41.449 34.6738 43.6036 30.0746 44.4116 25.024C45.2197 19.9732 44.6465 14.6513 43.1348 10.4647C42.2046 7.88863 40.2766 6.20796 37.6856 5.14036C35.0531 4.05569 31.8216 3.64848 28.5671 3.64848H3.64849Z" fill="white"/>
<path fill-rule="evenodd" clip-rule="evenodd" d="M11.2061 85.5755L11.2061 1.66035L14.8546 1.66035L14.8545 85.5755L11.2061 85.5755Z" fill="white"/>
<path fill-rule="evenodd" clip-rule="evenodd" d="M43.5212 7.91489L14.3334 44.3997L11.4844 42.1206L40.6723 5.6357L43.5212 7.91489Z" fill="white"/>
<path fill-rule="evenodd" clip-rule="evenodd" d="M36.7454 70.4603H1.82422V66.8119H36.7454V70.4603Z" fill="white"/>
<path d="M43.5212 68.1149C43.5212 72.001 40.3709 75.1513 36.4848 75.1513C32.5988 75.1513 29.4485 72.001 29.4485 68.1149C29.4485 64.2288 32.5988 61.0785 36.4848 61.0785C40.3709 61.0785 43.5212 64.2288 43.5212 68.1149Z" fill="white"/>
<path fill-rule="evenodd" clip-rule="evenodd" d="M79.4848 85.6276L79.4848 1.66034L83.1333 1.66034L83.1333 85.6276L79.4848 85.6276Z" fill="white"/>
<path fill-rule="evenodd" clip-rule="evenodd" d="M125.352 85.6276L125.352 1.66034L129 1.66034L129 85.6276L125.352 85.6276Z" fill="white"/>
<path fill-rule="evenodd" clip-rule="evenodd" d="M102.939 47.527L102.939 29.2846L106.588 29.2846L106.588 47.527L102.939 47.527Z" fill="white"/>
<path fill-rule="evenodd" clip-rule="evenodd" d="M114.927 47.527L114.927 29.2846L118.576 29.2846L118.576 47.527L114.927 47.527Z" fill="white"/>
<path fill-rule="evenodd" clip-rule="evenodd" d="M91.4727 47.527L91.4727 29.2846L95.1212 29.2846L95.1212 47.527L91.4727 47.527Z" fill="white"/>
<path fill-rule="evenodd" clip-rule="evenodd" d="M105.793 84.2856C106.135 84.6277 106.327 85.0917 106.327 85.5755H109.976C109.976 84.124 109.399 82.732 108.373 81.7057C107.346 80.6794 105.954 80.1028 104.503 80.1028C103.052 80.1028 101.66 80.6794 100.633 81.7057C99.6069 82.732 99.0303 84.124 99.0303 85.5755H102.679C102.679 85.0917 102.871 84.6277 103.213 84.2856C103.555 83.9434 104.019 83.7513 104.503 83.7513C104.987 83.7513 105.451 83.9434 105.793 84.2856Z" fill="white"/>
<path fill-rule="evenodd" clip-rule="evenodd" d="M103.213 2.95028C102.871 2.60817 102.679 2.14416 102.679 1.66034H99.0303C99.0303 3.1118 99.6068 4.50381 100.633 5.53015C101.66 6.55648 103.052 7.13307 104.503 7.13307C105.954 7.13307 107.346 6.55648 108.373 5.53015C109.399 4.50381 109.976 3.1118 109.976 1.66035H106.327C106.327 2.14416 106.135 2.60817 105.793 2.95028C105.451 3.29239 104.987 3.48459 104.503 3.48459C104.019 3.48459 103.555 3.29239 103.213 2.95028Z" fill="white"/>
<path fill-rule="evenodd" clip-rule="evenodd" d="M91.4727 43.8785H118.576V47.527H91.4727V43.8785Z" fill="white"/>
<path fill-rule="evenodd" clip-rule="evenodd" d="M106.588 47.527V64.727H102.939V47.527H106.588Z" fill="white"/>
</svg>
